<svg xmlns="http://www.w3.org/2000/svg" width="1352.953" height="875.699" viewBox="0 0 1352.953 875.699">
    <defs>
        <style>.a{fill:#efeeff;opacity:0.9;}.b{fill:#efeeff;opacity:1;}</style>
    </defs>

    <g id="overlay" transform="translate(-25.047 189)">
        <path id="Path_1" class="a"
              d="M0,0S238.795,120.729,109.057,359.671s892.652,92.463,892.652,92.463L962.61,668.2l65.6,157.5,324.748-75.216V0Z"
              transform="translate(25.047 -189)" fill="#efeeff" opacity="0.9"/>
        <path id="Path_2" class="b"
              d="M633.076,344.138c-66.49-2.286-129.736-23-190.181-45.716s-120.153-48-185.021-60c-41.722-7.715-89.488-8.858-122.954,12.858-32.434,20.858-42.754,56.717-48.5,90.147C82.288,366.568,79.782,393,91.281,416.57c8.108,16.286,22.409,30,32.287,45.716,34.35,54.288,10.025,121.434-27.274,174.579-17.4,25-37.594,48.717-51.157,75.289s-19.608,56.86-7.814,84c11.647,26.716,39.363,47,69.586,61,61.33,28.716,133.422,37.144,203.892,41.716,155.83,10.286,312.545,5.714,468.818,1.429a1420.215,1420.215,0,0,0,172.637-12c31.549-4.858,64.131-12.572,87.129-30.859,28.935-22.249,36.152-61.94,16.807-92.433-32.729-49.145-123.1-61.431-145.953-114.291-12.679-29,.295-61.431,18.576-88.433,39.216-57.86,104.968-108.576,108.506-174.722,2.359-45.431-29.338-90.861-78.136-112.291-51.3-22.43-122.364-19.572-160.106,17.572C760.01,331.137,691.6,346,633.076,344Z"
              transform="translate(104.536 -218.419)" fill="#efeeff"/>
    </g>
</svg>