<svg xmlns="http://www.w3.org/2000/svg" xmlns:xlink="http://www.w3.org/1999/xlink" width="1920" height="1080"
     viewBox="0 0 1920 1080">
    <defs>
        <linearGradient id="a" x1="0.5" y1="1" x2="0.5" gradientUnits="objectBoundingBox">
            <stop offset="0" stop-color="gray" stop-opacity="0.251"/>
            <stop offset="0.54" stop-color="gray" stop-opacity="0.122"/>
            <stop offset="1" stop-color="gray" stop-opacity="0.102"/>
        </linearGradient>
        <linearGradient id="b" x1="0.5" y1="1" x2="0.5" y2="0" xlink:href="#a"/>
        <linearGradient id="d" x1="0.501" y1="0.999" x2="0.501" y2="-0.001" xlink:href="#a"/>
        <linearGradient id="e" x1="0.5" y1="1" x2="0.5" y2="0.001" xlink:href="#a"/>
        <linearGradient id="g" x1="0.5" y1="1" x2="0.5" y2="0" xlink:href="#a"/>
        <linearGradient id="i" x1="0.5" y1="1" x2="0.5" y2="-0.001" xlink:href="#a"/>
        <linearGradient id="j" x1="0.5" y1="1" x2="0.5" y2="0" xlink:href="#a"/>
        <linearGradient id="n" x1="0.5" y1="1" x2="0.5" y2="0.001" xlink:href="#a"/>
        <linearGradient id="p" x1="0.5" y1="1" x2="0.5" y2="0" xlink:href="#a"/>
        <linearGradient id="q" x1="0.5" y1="1" x2="0.5" y2="0" xlink:href="#a"/>
        <linearGradient id="s" x1="0.5" y1="1" x2="0.5" y2="0" xlink:href="#a"/>
        <linearGradient id="t" x1="0.5" y1="1" x2="0.5" y2="0" xlink:href="#a"/>
        <linearGradient id="u" x1="0.5" y1="1" x2="0.5" y2="0" xlink:href="#a"/>
        <linearGradient id="v" x1="0.5" y1="1" x2="0.5" y2="0" xlink:href="#a"/>
        <linearGradient id="y" x1="0.5" y1="0.999" x2="0.5" y2="0" xlink:href="#a"/>
        <clipPath id="aa">
            <rect width="1920" height="1080"/>
        </clipPath>
    </defs>
    <g id="z" clip-path="url(#aa)">
        <g transform="translate(0.217 -8.499)">
            <path d="M1642.357,259.859c12.439,96.578,109.357,177.528,200.875,231.8,30.62,18.175,63.683,36.906,82.992,66.8,23.6,36.474,19.445,79.489,4.323,112.136-27.544,59.519-89.177,97.413-160.465,98.582-61.513,1.03-127.418-23.49-188.573-20.693-102.351,4.62-169.708,83.747-213.212,167.55-30.756,59.283-60.573,128.558-129.007,143.336-48.151,10.437-105.257-10.047-153.476-41.136-23.29-15.016-46.255-32.967-71.766-39.522-15.139-3.9-30.125-3.423-44.426-1.74C838.89,992.406,752.532,1103.6,619.475,1111.43c-89.861,5.344-188.282-38.84-269-101.588S203.969,866.812,141.6,786.307c-44.324-57.209-89.536-119.9-96.251-185-7.194-68.885,32.465-126.72,88.46-155.4s126.444-32.007,196.04-25.828c87.042,7.7,180,29.043,255.212,1.656,51.261-18.648,88.152-58.016,128.033-92.334,66.639-57.362,144.2-102.145,222.029-145.772,74.5-41.748,150.366-83,235.8-105.763,60.557-16.157,124.907-10.7,187.121-20.081,40.565-6.109,74.295-25.049,116.91-25.87,52.491-1.085,117.268,17.3,150.178,71.529C1656.471,154.945,1635.745,208.606,1642.357,259.859Z"
                  transform="translate(-32.634 -23.368)" fill="rgba(255,0,245,0.49)" opacity="0.097"/>
            <path d="M962.049,47.579l-88.2-5.394-51.037-3.674V38.42h-1.343v.1L547.027,60.673H524.273L521.6,156.237l44.179,15.712L592.55,309.4,470.731,552.863,397.12,609.146v53.664l44.179,43.2,2.673,197.668,13.392,2.606v-2.1l6.728,1.3v.782l261.447,88.7,10.99,7.517,22.987-14.449L944.706,880.1ZM680.973,661.638h0L752.595,600.4h0Zm-248.4,25.406,19.371,18.983V707.2Z"
                  transform="translate(58.267 -29.921)" fill="url(#a)"/>
            <path d="M416.092,533.445l260.866,65.862L638.216,555.4l-21.954-27.12-228.58-45.2-10.331,9.04Z"
                  transform="translate(109.96 146.216)" fill="#535461"/>
            <path d="M378.516,502.611l256.991,59.405,1.291-61.988-73.611-28.411L415.967,447.08H373.35Z"
                  transform="translate(108.795 135.307)" fill="#d6d6e3"/>
            <path d="M527.47,251.884l262.157,16.788V219.6l-18.08-109.77-9.04-7.748L500.35,109.828Z"
                  transform="translate(145.804 29.737)" fill="#d6d6e3"/>
            <path d="M503.949,27.08H491.034l-2.583,94.273,42.617,15.5,25.828,135.6-117.519,240.2L368.35,568.183v52.948l42.617,42.617,2.583,195,12.914,2.583-2.583-193.712-42.617-45.2-1.291-54.239,68.445-54.239,120.1-240.2L542.691,136.85l-42.617-18.08,3.874-91.69Z"
                  transform="translate(107.338 7.881)" fill="#d6d6e3"/>
            <path d="M495.948,27.08H483.034l-2.583,94.273,42.617,15.5,25.828,135.6-117.519,240.2L360.35,568.183v52.948l42.617,42.617,2.583,195,12.914,2.583-2.583-193.712-42.617-45.2-1.291-54.239L443,513.943l117.519-240.2L534.691,136.85l-42.617-18.08,3.874-91.69Z"
                  transform="translate(105.006 7.881)" fill="#535461"/>
            <path d="M464.85,95.64l6.457,9.04,36.16,16.788,286.694-7.748L766.4,105.325l-29.7-12.914,3.874-10.331Z"
                  transform="translate(135.459 23.908)" fill="#a8a8a8"/>
            <path d="M427.35,462.157l262.157,42.617,52.948-112.353,72.319-161.427L548.743,218.08Z"
                  transform="translate(124.531 66.485)" fill="#040312"/>
            <g transform="translate(600.955 331.197)" opacity="0.255">
                <path d="M551.875,254.08,728.8,268.286l-91.69,180.8L465.35,423.255Z"
                      transform="translate(-465.35 -254.08)" fill="#00ff4e"/>
            </g>
            <g transform="translate(695.874 343.894)" opacity="0.191">
                <path d="M542.66,264.25l7.813.633-4.042,7.968-7.581-1.136Z" transform="translate(-538.85 -264.25)"
                      fill="#fff"/>
            </g>
            <g transform="translate(697.165 419.393)" opacity="0.1">
                <path d="M543.66,322.25l7.813.633-4.042,7.968-7.581-1.136Z" transform="translate(-539.85 -322.25)"
                      fill="#fff"/>
            </g>
            <g transform="translate(739.782 353.006)" opacity="0.1">
                <path d="M576.66,271.25l7.813.633-4.042,7.968-7.581-1.136Z" transform="translate(-572.85 -271.25)"
                      fill="#fff"/>
            </g>
            <g transform="translate(821.141 356.911)" opacity="0.1">
                <path d="M639.66,274.25l7.813.633-4.042,7.968-7.581-1.136Z" transform="translate(-635.85 -274.25)"
                      fill="#fff"/>
            </g>
            <g transform="translate(711.371 367.325)" opacity="0.1">
                <path d="M554.66,282.25l7.813.633-4.042,7.968-7.581-1.136Z" transform="translate(-550.85 -282.25)"
                      fill="#fff"/>
            </g>
            <g transform="translate(739.782 446.728)" opacity="0.1">
                <path d="M576.66,343.25l7.813.633-4.042,7.968-7.581-1.136Z" transform="translate(-572.85 -343.25)"
                      fill="#fff"/>
            </g>
            <g transform="translate(670.045 401.169)" opacity="0.1">
                <path d="M522.66,308.25l7.813.633-4.042,7.968-7.581-1.136Z" transform="translate(-518.85 -308.25)"
                      fill="#fff"/>
            </g>
            <g transform="translate(788.856 353.006)" opacity="0.1">
                <path d="M614.66,271.25l7.813.633-4.042,7.968-7.581-1.136Z" transform="translate(-610.85 -271.25)"
                      fill="#fff"/>
            </g>
            <g transform="translate(726.868 397.264)" opacity="0.1">
                <path d="M566.66,305.25l7.813.633-4.042,7.968-7.581-1.136Z" transform="translate(-562.85 -305.25)"
                      fill="#fff"/>
            </g>
            <g transform="translate(717.828 347.799)" opacity="0.1">
                <path d="M559.66,267.25l7.813.633-4.042,7.968-7.581-1.136Z" transform="translate(-555.85 -267.25)"
                      fill="#fff"/>
            </g>
            <g transform="translate(757.862 393.359)" opacity="0.1">
                <path d="M590.66,302.25l7.813.633-4.042,7.968-7.581-1.136Z" transform="translate(-586.85 -302.25)"
                      fill="#fff"/>
            </g>
            <g transform="translate(766.902 353.006)" opacity="0.1">
                <path d="M597.66,271.25l7.813.633-4.042,7.968-7.581-1.136Z" transform="translate(-593.85 -271.25)"
                      fill="#fff"/>
            </g>
            <g transform="translate(685.542 371.23)" opacity="0.1">
                <path d="M534.66,285.25l7.813.633-4.042,7.968-7.581-1.136Z" transform="translate(-530.85 -285.25)"
                      fill="#fff"/>
            </g>
            <path d="M373.35,459.174l255.7,51.657L699.484,449.2,443.732,405.58Z" transform="translate(108.795 122.693)"
                  fill="#d6d6e3"/>
            <path d="M410.35,517.08V718.541l253.117,87.816,3.874-209.209L657.01,577.686l-46.491-11.532Z"
                  transform="translate(119.577 159.135)" fill="#535461"/>
            <ellipse cx="10.977" cy="6.457" rx="10.977" ry="6.457" transform="translate(551.881 540.246)"
                     fill="#575988"/>
            <ellipse cx="10.977" cy="6.457" rx="10.977" ry="6.457" transform="translate(560.921 554.565)"
                     fill="#fa595f"/>
            <ellipse cx="10.977" cy="6.457" rx="10.977" ry="6.457" transform="translate(529.927 550.66)"
                     fill="#ffd037"/>
            <ellipse cx="10.977" cy="6.457" rx="10.977" ry="6.457" transform="translate(669.4 563.677)" fill="#575988"/>
            <ellipse cx="10.977" cy="6.457" rx="10.977" ry="6.457" transform="translate(647.446 575.393)"
                     fill="#ffd037"/>
            <ellipse cx="16.143" cy="7.748" rx="16.143" ry="7.748" transform="translate(600.955 554.576)"
                     fill="#a8a8a8"/>
            <ellipse cx="10.977" cy="6.457" rx="10.977" ry="6.457" transform="translate(681.023 577.996)"
                     fill="#fa595f"/>
            <path d="M529.145,470.791H521.4l-6.664-25.725a7.322,7.322,0,0,1,7.09-9.156h0a7.322,7.322,0,0,1,7.322,7.322Z"
                  transform="translate(92.473 90.104)" fill="#a8a8a8"/>
            <ellipse cx="16.143" cy="7.748" rx="16.143" ry="7.748" transform="translate(717.182 575.404)"
                     fill="#a8a8a8"/>
            <path d="M619.145,486.791H611.4l-6.664-25.725a7.322,7.322,0,0,1,7.09-9.156h0a7.322,7.322,0,0,1,7.322,7.322Z"
                  transform="translate(118.7 94.935)" fill="#a8a8a8"/>
            <path d="M473.807,32.034,739.838,10.08l-6.457,96.856L467.35,119.85Z" transform="translate(136.188 2.926)"
                  fill="#535461"/>
            <path d="M708.24,10.08,830.924,19.2,814.136,847.847l-187.9,121.821-12.914-9.12-.646-216.933-41.325-46.9V631.565l72.319-63.842L766.354,292.81l-17.434-157h9.04l-57.468-20.2Z"
                  transform="translate(166.495 2.926)" fill="#d6d6e3"/>
            <path d="M716.948,11.08,840.924,18.9,824.136,847.559,622.675,968.732V743.325L581.35,696.42V631.273l72.319-63.843L776.354,292.512,754.4,134.858l-43.908-19.544Z"
                  transform="translate(169.409 3.218)" fill="#535461"/>
            <path d="M585.135,431.882c-18.08,37.451-62.582,27.74-62.582,27.74-2.3-2.131-16.685-5.7-27.6-8.162-7-1.589-12.565-2.7-12.565-2.7l15.277-21.3,11.455,2.35,17.085,3.513S603.279,394.444,585.135,431.882Z"
                  transform="translate(83.116 84.014)" fill="url(#b)"/>
            <g transform="translate(565.505 499.623)" opacity="0.08">
                <path d="M585.135,431.882c-18.08,37.451-62.582,27.74-62.582,27.74-2.3-2.131-16.685-5.7-27.6-8.162-7-1.589-12.565-2.7-12.565-2.7l15.277-21.3,11.455,2.35,17.085,3.513S603.279,394.444,585.135,431.882Z"
                      transform="translate(-482.39 -415.61)" fill="url(#b)"/>
            </g>
            <g transform="translate(565.48 511.507)" opacity="0.1">
                <path d="M509.141,427.137l-14.206,21.657c-7-1.588-12.565-2.7-12.565-2.7l15.277-21.3Z"
                      transform="translate(-482.37 -424.8)" fill="url(#d)"/>
            </g>
            <path d="M380.7,377.677s66.6,104.075,137.91,103.83l19.371-29.7s-65.268-46.62-73.946-70.924c-3.2-9.04-9.815-21.425-16.866-33.577-21.657-37.231-80.068-12.914-67.231,28Q380.316,376.515,380.7,377.677Z"
                  transform="translate(52.729 58.184)" fill="url(#e)"/>
            <g transform="translate(430.848 387.083)" opacity="0.05">
                <path d="M380.7,377.677s66.6,104.075,137.91,103.83l19.371-29.7s-65.268-46.62-73.946-70.924c-3.2-9.04-9.815-21.425-16.866-33.577-21.657-37.231-80.068-12.914-67.231,28Q380.316,376.515,380.7,377.677Z"
                      transform="translate(-378.118 -328.9)" fill="url(#e)"/>
            </g>
            <path d="M346.55,841.157l3.125,36.16s102.293-16.995,101.4-50.972S346.55,841.157,346.55,841.157Z"
                  transform="translate(43.53 204.648)" fill="url(#g)"/>
            <g transform="translate(390.08 1018.963)" opacity="0.1">
                <path d="M346.55,841.157l3.125,36.16s102.293-16.995,101.4-50.972S346.55,841.157,346.55,841.157Z"
                      transform="translate(-346.55 -814.315)" fill="url(#g)"/>
            </g>
            <path d="M439.652,849.816l-1.782,31.369s142.056-10.46,136.683-40.034-80.4-13.121-80.4-13.121Z"
                  transform="translate(70.142 207.315)" fill="url(#i)"/>
            <path d="M470.264,633.909s-8.394,23.245-19.113,49.874c-10.254,25.493-22.626,54.149-31.807,68.626-18.764,29.625-21.437,121.122-21.437,121.122-3.577,14.812,14.3,43.572,14.3,43.572-35.733,37.451-68.794,15.691-68.794,15.691,6.25-11.326-4.468-43.572-4.468-43.572s14.3-149,23.245-155.977,16.078-41.829,16.078-41.829L370.27,572.967l-1.834-27.12,76.826-33.977,5.54,27.016,5.489,26.745Z"
                  transform="translate(41.312 116.511)" fill="url(#j)"/>
            <g transform="translate(380.252 628.382)" opacity="0.1">
                <path d="M470.264,633.909s-8.394,23.245-19.113,49.874c-10.254,25.493-22.626,54.149-31.807,68.626-18.764,29.625-21.437,121.122-21.437,121.122-3.577,14.812,14.3,43.572,14.3,43.572-35.733,37.451-68.794,15.691-68.794,15.691,6.25-11.326-4.468-43.572-4.468-43.572s14.3-149,23.245-155.977,16.078-41.829,16.078-41.829L370.27,572.967l-1.834-27.12,76.826-33.977,5.54,27.016,5.489,26.745Z"
                      transform="translate(-338.94 -511.87)" fill="url(#j)"/>
            </g>
            <path d="M522.546,916.24c-16.078,27.882-72.319,24.395-72.319,24.395V858.72s-16.078-91.5-7.141-112.353-3.577-59.25-3.577-59.25l-3.074-9.414L400,565.349,389.44,532.78H510.045v14.645c.155,34.868.878,121.277,4.43,141.332,4.468,25.273-8.046,41.829-8.046,41.829s7.141,102.822.891,135.056S522.546,916.24,522.546,916.24Z"
                  transform="translate(56.029 122.605)" fill="url(#j)"/>
            <path d="M430.343,236.61s-18.764,50.533-56.28,68.832,61.639,23.53,61.639,23.53,16.078-38.342,52.7-65.358Z"
                  transform="translate(49.077 30.047)" fill="url(#a)"/>
            <g transform="translate(409.735 625.032)" opacity="0.1">
                <path d="M518.147,553.573c-14.955,2.88-41.416,7.813-68.522,12.1-14.206,2.247-28.566,4.313-41.558,5.811-19.991,2.312-36.715,3.28-44.463,1.472l-1.834-27.12L438.6,511.86l5.54,27.016h73.972S518.109,544.507,518.147,553.573Z"
                      transform="translate(-361.77 -511.86)" fill="url(#n)"/>
            </g>
            <path d="M537.337,615.743s-150.979,30.5-169.731,20.921-23.245-33.977-17.873-60.993,0-94.105-9.828-179.507c-4.946-43,5.953-71.867,18.015-89.921A57.352,57.352,0,0,1,405.7,281.15a72.319,72.319,0,0,1,45.032,15.5c3.771,3.009,7.581,5.476,10.693,6.315,2.454.659,6.147,3.267,10.331,6.819a95.139,95.139,0,0,1,32.634,63.163c1.55,16.233,3.19,36.676,3.99,57.339a466.213,466.213,0,0,1-.542,52.948,173.528,173.528,0,0,0,1.834,38.626C516.636,568.942,537.337,615.743,537.337,615.743Z"
                  transform="translate(41.238 44.528)" fill="url(#a)"/>
            <g transform="translate(467.689 400.613)" opacity="0.1">
                <path d="M489.883,504.993c-54.795-33.344-83.128-126.636-83.128-126.636a21.11,21.11,0,0,0-.09-2.4c-1.227-42.785,61.768-51.024,72.461-9.5,3.474,13.521,6.457,27.236,7.077,36.715a39.246,39.246,0,0,0,2.389,10.189,466.2,466.2,0,0,1-.542,52.948,173.528,173.528,0,0,0,1.834,38.691Z"
                      transform="translate(-406.646 -339.241)" fill="url(#p)"/>
            </g>
            <g transform="translate(470.031 271.853)" opacity="0.1">
                <path d="M408.46,265.494c8.911,14.735,15.962,29.573,34.055,32.092a163.877,163.877,0,0,1,30.71-29.909L415.111,240.66S418.52,249.881,408.46,265.494Z"
                      transform="translate(-408.46 -240.66)" fill="url(#q)"/>
            </g>
            <ellipse cx="58.966" cy="57.507" rx="58.966" ry="57.507" transform="translate(456.187 208.681)"
                     fill="url(#b)"/>
            <g transform="translate(440.865 180.388)" opacity="0.1">
                <path d="M518.445,273.951a12.049,12.049,0,0,0,6.922-1.834c2.828-2.053,3.732-5.734,4.378-9.117,1.537-7.994,2.738-16.414,0-24.111-1.769-5.088-5.166-9.492-7.542-14.322-5.295-10.551-6.238-23.245-13.792-32.4-4.714-5.734-21.283,0-28.2-2.893-14.877-6.25-21.334-18.932-37.541-18.919a59.883,59.883,0,0,0-17.589,2.2c-7.245,2.234-13.65,6.457-19.6,11.093-10.331,8.033-20.456,19.061-19.539,31.95.594,8.226,5.618,15.5,8.575,23.168,4.959,12.914,4.055,27.43.478,40.809-1.524,5.7-3.267,12.5.775,16.853,2.583,2.725,6.677,3.5,10.331,2.906a34.4,34.4,0,0,0,10.331-4.133c5.811-3.086,11.7-6.225,16.4-10.757,3.112-3,5.618-6.535,8.575-9.673a94.788,94.788,0,0,1,19.5-15.5c5.721-3.435,11.623-1.291,17.628.943C491.726,265.053,503.93,274.21,518.445,273.951Z"
                      transform="translate(-385.875 -170.336)" fill="url(#s)"/>
            </g>
            <path d="M134.475,79.04a15.472,15.472,0,0,0,7.012-1.41c2.867-1.566,3.79-4.363,4.45-6.933,1.571-6.073,2.8-12.468.046-18.3-1.782-3.858-5.212-7.193-7.609-10.853-5.341-8-6.271-17.631-13.9-24.563-4.762-4.341-20.648.719-27.651-1.469C81.769,10.8,74.355.537,57.945.589A79.972,79.972,0,0,0,40.132,2.3a71.556,71.556,0,0,0-19.87,8.472C9.787,16.9-.485,25.3.418,35.078,1,41.321,6.077,46.828,9.057,52.644c5,9.791,4.054,20.813.406,30.979-1.554,4.327-3.332,9.5.752,12.792,2.61,2.062,6.753,2.64,10.455,2.179a42.38,42.38,0,0,0,10.468-3.164c5.89-2.358,11.858-4.756,16.627-8.209,3.157-2.283,5.7-4.975,8.7-7.365A97.423,97.423,0,0,1,76.239,68.042c5.8-2.623,11.77-1.01,17.846.67C107.439,72.354,119.778,79.274,134.475,79.04Z"
                  transform="matrix(0.985, -0.174, 0.174, 0.985, 429.942, 207.342)" fill="url(#t)"/>
            <g transform="translate(417.032 338.426)" opacity="0.05">
                <path d="M501.314,519.063a173.531,173.531,0,0,1-1.834-38.626,466.228,466.228,0,0,0,.542-52.948c-.8-20.663-2.428-41.106-3.99-57.339a95.139,95.139,0,0,0-32.712-63.2c-4.145-3.551-7.839-6.173-10.331-6.819-3.112-.827-6.922-3.306-10.693-6.315-12.682-10.112,3.435,9.582,7.581,13.134a95.138,95.138,0,0,1,32.711,63.2c1.55,16.233,3.19,36.676,3.99,57.339a466.213,466.213,0,0,1-.542,52.948,173.528,173.528,0,0,0,1.834,38.626c6.948,47.046,27.649,93.821,27.649,93.821S414.453,633.3,367.42,635.471c36.857,2.583,161.491-22.587,161.491-22.587S508.262,566.084,501.314,519.063Z"
                      transform="translate(-367.42 -290.957)" fill="url(#u)"/>
            </g>
            <path d="M589.913,480.216c-27.7,31.368-67.89,10.46-67.89,10.46-1.64-2.66-14.528-9.828-24.356-15.045-6.315-3.345-11.377-5.876-11.377-5.876L506.836,453.2l10.4,5.243,15.5,7.826S617.64,448.848,589.913,480.216Z"
                  transform="translate(84.252 95.365)" fill="url(#v)"/>
            <g transform="translate(570.542 548.473)" opacity="0.1">
                <path d="M517.232,458.443l-19.565,17.189c-6.315-3.345-11.377-5.876-11.377-5.876L506.836,453.2Z"
                      transform="translate(-486.29 -453.2)" fill="url(#a)"/>
            </g>
            <path d="M408.144,376.336S443.878,493.971,512.671,512.27l26.8-23.53s-50.12-61.91-51.876-87.6c-.633-9.492-3.6-23.245-7.077-36.715-10.693-41.506-73.688-33.28-72.461,9.5Q408.093,375.122,408.144,376.336Z"
                  transform="translate(61.448 60.798)" fill="url(#a)"/>
            <path d="M354.51,458.4s23.245-18.3,44.67-4.352,52.7,12.2,57.171,13.069" transform="translate(45.849 93.931)"
                  opacity="0.05" fill="url(#y)"/>
            <path d="M578.833,430.307c-17.24,36.521-59.56,27.12-59.56,27.12-2.2-2.079-15.884-5.553-26.254-7.955-6.664-1.55-11.958-2.583-11.958-2.583L495.6,426.11l10.9,2.3,16.259,3.422S596.073,393.773,578.833,430.307Z"
                  transform="translate(82.728 83.661)" fill="#f7c4a7"/>
            <path d="M578.833,430.307c-17.24,36.521-59.56,27.12-59.56,27.12-2.2-2.079-15.884-5.553-26.254-7.955-6.664-1.55-11.958-2.583-11.958-2.583L495.6,426.11l10.9,2.3,16.259,3.422S596.073,393.773,578.833,430.307Z"
                  transform="translate(82.728 83.661)" opacity="0.08"/>
            <path d="M506.5,425.664l-13.482,21.128c-6.664-1.55-11.958-2.583-11.958-2.583L495.6,423.43Z"
                  transform="translate(82.728 86.291)" opacity="0.1"/>
            <path d="M384.281,377.4s63.383,101.557,131.234,101.3l18.454-28.928s-62.1-45.484-70.369-69.207c-3.048-8.756-9.337-20.9-16.039-32.724-20.663-36.315-76.193-12.591-63.99,27.326Z"
                  transform="translate(53.813 58.47)" fill="#575988"/>
            <path d="M384.281,377.4s63.383,101.557,131.234,101.3l18.454-28.928s-62.1-45.484-70.369-69.207c-3.048-8.756-9.337-20.9-16.039-32.724-20.663-36.315-76.193-12.591-63.99,27.326Z"
                  transform="translate(53.813 58.47)" fill="#171939" opacity="0.05"/>
            <path d="M351.78,829.64l2.97,35.281s97.347-16.582,96.495-49.732S351.78,829.64,351.78,829.64Z"
                  transform="translate(45.054 201.482)" fill="#535461"/>
            <path d="M351.78,829.64l2.97,35.281s97.347-16.582,96.495-49.732S351.78,829.64,351.78,829.64Z"
                  transform="translate(45.054 201.482)" opacity="0.1"/>
            <path d="M440.385,838.1l-1.7,30.62s135.185-10.2,130.084-39.1-76.516-12.759-76.516-12.759Z"
                  transform="translate(70.378 204.079)" fill="#535461"/>
            <path d="M469.507,627.41s-7.994,22.651-18.2,48.66c-9.763,24.873-21.541,52.832-30.271,66.96-17.8,28.915-20.379,118.177-20.379,118.177-3.4,14.451,13.6,42.513,13.6,42.513-34,36.56-65.462,15.3-65.462,15.3,5.953-11.054-4.249-42.513-4.249-42.513s13.6-145.387,22.109-152.18,15.29-40.809,15.29-40.809l-7.606-115.569L372.6,541.544l73.12-33.164,5.308,26.358,5.166,26.1Z"
                  transform="translate(42.947 115.494)" fill="#6a5c99"/>
            <path d="M469.507,627.41s-7.994,22.651-18.2,48.66c-9.763,24.873-21.541,52.832-30.271,66.96-17.8,28.915-20.379,118.177-20.379,118.177-3.4,14.451,13.6,42.513,13.6,42.513-34,36.56-65.462,15.3-65.462,15.3,5.953-11.054-4.249-42.513-4.249-42.513s13.6-145.387,22.109-152.18,15.29-40.809,15.29-40.809l-7.606-115.569L372.6,541.544l73.12-33.164,5.308,26.358,5.166,26.1Z"
                  transform="translate(42.947 115.494)" opacity="0.809"/>
            <path d="M519.278,902.877c-15.3,27.21-68.871,23.8-68.871,23.8V846.752s-15.3-89.276-6.806-109.68-3.4-57.817-3.4-57.817l-2.893-9.143L402.637,560.549,392.59,528.78H507.371v14.3c.142,34,.839,118.332,4.223,137.9,4.249,24.653-7.658,40.809-7.658,40.809s6.806,100.317.852,131.724S519.278,902.877,519.278,902.877Z"
                  transform="translate(56.947 121.439)"/>
            <path d="M431.519,239.78s-17.86,49.306-53.568,67.154,58.669,22.961,58.669,22.961,15.3-37.451,50.159-63.77Z"
                  transform="translate(50.329 31.001)" fill="#f7c4a7"/>
            <path d="M515.086,549.037c-14.231,2.764-39.388,7.619-65.216,11.8-13.508,2.2-27.184,4.21-39.556,5.669-19.023,2.247-34.946,3.2-42.32,1.433l-1.743-26.41,73.12-33.163,5.334,26.371H515.1S515.047,540.177,515.086,549.037Z"
                  transform="translate(49.271 112.109)" opacity="0.1"/>
            <path d="M533.351,609.681s-143.683,29.7-161.53,20.4-22.109-33.164-17.008-59.508,0-91.82-9.35-175.142c-4.714-41.958,5.669-70.111,17.137-87.739a54.24,54.24,0,0,1,45.458-24.537,67.683,67.683,0,0,1,42.849,15.1c3.59,2.931,7.219,5.346,10.176,6.16,2.337.633,5.85,3.19,9.789,6.651a93.614,93.614,0,0,1,31.136,61.665c1.485,15.833,3.035,35.785,3.8,55.957a466.373,466.373,0,0,1-.5,51.657,173.527,173.527,0,0,0,1.743,37.683C513.644,564.081,533.351,609.681,533.351,609.681Z"
                  transform="translate(42.874 45.1)" fill="#171939"/>
            <path d="M488.186,501.643c-52.147-32.531-79.112-123.562-79.112-123.562a19.975,19.975,0,0,0-.09-2.337c-1.162-41.739,58.785-49.784,68.962-9.272,3.306,13.2,6.134,26.564,6.728,35.824a39.1,39.1,0,0,0,2.273,9.944,466.389,466.389,0,0,1-.5,51.657,173.521,173.521,0,0,0,1.743,37.748Z"
                  transform="translate(61.719 61.563)" opacity="0.1"/>
            <path d="M410.7,267.96c8.472,14.373,15.187,28.863,32.414,31.3a157.863,157.863,0,0,1,29.225-29.186L417.08,243.72S420.269,252.734,410.7,267.96Z"
                  transform="translate(62.224 32.115)" opacity="0.1"/>
            <circle cx="56.112" cy="56.112" r="56.112" transform="translate(459.752 214.225)" fill="#f7c4a7"/>
            <path d="M128.117,76.544a14.528,14.528,0,0,0,6.676-1.379c2.725-1.515,3.609-4.231,4.23-6.713,1.493-5.84,2.648-12.069.046-17.723-1.691-3.741-4.914-6.962-7.247-10.506-5.1-7.768-5.974-17.065-13.231-23.778-4.542-4.2-20.514.054-27.195-2.059C77.016,9.833,70.865.53,55.244.581A74.946,74.946,0,0,0,38.231,2.24c-6.991,1.652-13.174,4.8-18.913,8.2C9.307,16.371-.447,24.5.418,33.971c.56,6.049,5.387,11.328,8.225,17,4.764,9.5,3.873,20.154.381,29.988-1.476,4.187-3.177,9.191.714,12.391,2.428,1.988,6.43,2.561,10,2.1a39.913,39.913,0,0,0,10.016-3.061c5.606-2.281,11.29-4.6,15.825-7.94,3-2.216,5.429-4.819,8.287-7.132A92.479,92.479,0,0,1,72.7,65.882c5.528-2.534,11.189-1,17.006.646C102.373,70.075,114.118,76.776,128.117,76.544Z"
                  transform="matrix(0.985, -0.174, 0.174, 0.985, 436.237, 213.428)" opacity="0.1"/>
            <path d="M128.117,76.573a14.545,14.545,0,0,0,6.676-1.36c2.725-1.515,3.609-4.231,4.23-6.713,1.493-5.84,2.648-12.069.046-17.723-1.691-3.741-4.914-6.962-7.247-10.506-5.1-7.768-5.974-17.065-13.231-23.778-4.542-4.2-19.626.7-26.333-1.419C77.878,10.521,70.865.539,55.244.58A74.945,74.945,0,0,0,38.231,2.239c-6.991,1.652-13.174,4.8-18.913,8.2C9.307,16.371-.447,24.5.418,33.971c.56,6.049,5.387,11.328,8.225,17,4.764,9.5,3.873,20.154.381,29.988-1.476,4.187-3.177,9.191.714,12.391,2.428,1.988,6.43,2.561,10,2.1a39.913,39.913,0,0,0,10.016-3.061c5.605-2.281,11.29-4.6,15.825-7.94,3-2.216,5.429-4.819,8.287-7.132a92.943,92.943,0,0,1,19.013-11.4c5.528-2.534,11.189-1,17.006.646C102.373,70.084,114.118,76.8,128.117,76.573Z"
                  transform="matrix(0.985, -0.174, 0.174, 0.985, 435.241, 212.691)" fill="#452e2e"/>
            <path d="M499.038,515.363a173.523,173.523,0,0,1-1.692-37.645,466.359,466.359,0,0,0,.5-51.657c-.762-20.172-2.312-40.111-3.8-55.957a93.615,93.615,0,0,0-31.136-61.665c-3.939-3.474-7.451-6.018-9.789-6.651-2.957-.814-6.586-3.229-10.176-6.16-12.075-9.866,3.267,9.35,7.219,12.811a93.614,93.614,0,0,1,31.136,61.665c1.485,15.833,3.035,35.785,3.8,55.957a466.344,466.344,0,0,1-.5,51.657,173.528,173.528,0,0,0,1.743,37.684c6.612,45.9,26.319,91.535,26.319,91.535s-96.185,19.914-140.932,22.044c35.075,2.583,153.678-22.044,153.678-22.044S505.65,561.26,499.038,515.363Z"
                  transform="translate(50.868 48.003)" opacity="0.05"/>
            <path d="M583.388,477.468c-26.358,30.607-64.571,10.2-64.571,10.2-1.55-2.583-13.818-9.6-23.245-14.67-6.005-3.267-10.822-5.734-10.822-5.734L504.3,451.11l9.892,5.166,14.787,7.606S609.746,446.861,583.388,477.468Z"
                  transform="translate(83.803 94.729)" fill="#f7c4a7"/>
            <path d="M514.214,456.221,495.592,473.01c-6.005-3.267-10.822-5.734-10.822-5.734l19.552-16.156Z"
                  transform="translate(83.809 94.643)" opacity="0.1"/>
            <path d="M410.4,376.112s34,114.781,99.439,132.628l25.505-22.961s-47.782-60.4-49.371-85.466c-.607-9.259-3.422-22.638-6.741-35.824-10.176-40.5-70.124-32.466-68.949,9.272Q410.348,374.924,410.4,376.112Z"
                  transform="translate(62.098 61)" fill="#171939"/>
            <path d="M359.35,456.183s22.109-17.86,42.513-4.249,50.159,11.907,54.407,12.759"
                  transform="translate(47.26 93.328)" opacity="0.05"/>
        </g>
    </g>
</svg>